<svg width="24" height="24" viewBox="0 0 24 24" fill="none" xmlns="http://www.w3.org/2000/svg">
<path d="M2.49697 2.53538C2.40413 2.64275 2.37459 2.71744 2.37459 2.86215C2.37459 3.19359 2.46743 3.25894 3.30301 3.52503C3.70815 3.65574 4.05842 3.78177 4.0753 3.80045C4.13438 3.86113 1.54744 9.9624 1.40396 10.1024C1.20983 10.2938 1.18029 10.4059 1.20983 10.798C1.27735 11.6196 1.4757 12.1984 1.91459 12.8566C2.54339 13.8043 3.45916 14.3318 4.55217 14.3831C5.64096 14.4345 6.47655 14.0704 7.24883 13.2068C7.83965 12.5486 8.1435 11.8577 8.24478 10.938C8.28699 10.5599 8.28277 10.4759 8.2279 10.3265C8.18992 10.2285 8.11396 10.1258 8.05488 10.0978C7.9747 10.0558 7.72571 9.50025 6.7593 7.21286C6.10518 5.65837 5.55234 4.34662 5.53124 4.30461C5.50592 4.24392 5.51014 4.22992 5.54812 4.24392C5.57766 4.25326 6.57361 4.57069 7.75525 4.94414C8.94111 5.31759 9.93706 5.63503 9.97504 5.64903C10.0257 5.66304 10.0594 5.7704 10.0932 6.03182C10.2029 6.85808 10.7009 7.53963 11.3803 7.79638L11.5745 7.87107L11.566 12.6839L11.5534 17.5015L10.7304 17.5248C10.0088 17.5481 9.87797 17.5621 9.67541 17.6555C9.01707 17.9496 8.57818 18.6545 8.57818 19.4247V19.7095L8.38405 19.7842C7.9325 19.9522 7.51892 20.3537 7.33324 20.8065C7.15177 21.2453 7.08003 22.1696 7.20241 22.4964C7.3248 22.8185 7.03361 22.7998 11.9965 22.7998C16.9594 22.7998 16.6682 22.8185 16.7905 22.4964C16.8623 22.3096 16.8665 21.7821 16.8032 21.3527C16.6977 20.6104 16.2504 20.0269 15.6089 19.7842L15.4148 19.7095V19.4247C15.4148 18.6545 14.9759 17.9496 14.3175 17.6555C14.115 17.5621 13.9842 17.5481 13.2625 17.5248L12.4396 17.5015L12.4269 12.6839L12.4185 7.87107L12.5746 7.81505C12.946 7.68434 13.4609 7.24087 13.6297 6.90943C13.6719 6.83007 13.8069 6.86742 16.0731 7.58164C17.394 8.00178 18.5166 8.35656 18.5672 8.3799C18.6516 8.41724 18.601 8.55729 17.3518 11.5122C16.377 13.823 16.0183 14.6352 15.9254 14.7239C15.7313 14.9106 15.7018 15.0507 15.7524 15.5548C15.8495 16.5258 16.301 17.4968 16.9171 18.0616C17.4109 18.5098 17.6388 18.6545 18.2001 18.8599C18.5335 18.9813 18.6094 18.9906 19.234 18.9906C19.9599 18.9953 20.1371 18.9579 20.6688 18.7012C21.5171 18.2904 22.2641 17.4174 22.5806 16.4558C22.7029 16.087 22.8 15.5408 22.8 15.2467C22.8 15.004 22.6861 14.7472 22.5595 14.7052C22.5046 14.6866 22.1121 13.8043 21.2512 11.769C20.5802 10.1725 20.0316 8.86072 20.0358 8.85605C20.04 8.84671 20.2722 8.91673 20.5549 9.00543C20.8334 9.09412 21.1331 9.16881 21.2175 9.16881C21.5762 9.16881 21.7576 8.65999 21.5044 8.3799C21.3863 8.25386 20.9685 8.11848 14.1614 5.96646L13.942 5.89644L13.9166 5.63036C13.8322 4.78543 13.3638 4.09454 12.6759 3.79111C12.486 3.70708 12.3552 3.68841 11.9965 3.68841C11.4985 3.68841 11.2369 3.77244 10.8908 4.04786C10.7136 4.18323 10.4435 4.50533 10.3548 4.67339C10.3253 4.73408 9.75137 4.56602 6.62848 3.57171C4.59859 2.9275 2.86834 2.4 2.77972 2.4C2.66155 2.4 2.58981 2.43268 2.49697 2.53538ZM12.4438 4.73874C13.233 5.15888 13.2288 6.40994 12.4396 6.81607C11.7095 7.19419 10.8613 6.53131 10.9541 5.65837C11.0005 5.25691 11.258 4.86945 11.5913 4.70607C11.7981 4.60803 12.2328 4.62204 12.4438 4.73874ZM5.85619 7.35757L6.96609 9.98574L4.7463 9.99974C3.52668 10.0044 2.52229 9.99974 2.50963 9.98574C2.49697 9.97174 2.99072 8.77669 3.60264 7.32956C4.21456 5.87777 4.72098 4.7014 4.73364 4.71073C4.74208 4.72007 5.24849 5.91512 5.85619 7.35757ZM20.3861 11.993L21.4875 14.6072L19.2678 14.6212C18.0481 14.6259 17.0395 14.6212 17.0311 14.6119C17.0227 14.6025 17.5122 13.4075 18.1241 11.9557C18.736 10.5039 19.2467 9.3322 19.2593 9.3462C19.2762 9.36488 19.7826 10.5553 20.3861 11.993ZM7.35434 11.0034C7.35434 11.0687 7.20663 11.5402 7.13067 11.7223C6.70866 12.7306 5.73803 13.4122 4.7252 13.4168C3.77567 13.4168 2.83036 12.796 2.39991 11.881C2.26486 11.5916 2.1256 11.1621 2.12138 11.0221C2.12138 11.0034 3.29879 10.9894 4.73786 10.9894C6.17692 10.9894 7.35434 10.9941 7.35434 11.0034ZM21.8505 15.7602C21.8336 15.8443 21.7661 16.059 21.6986 16.2411C21.2892 17.3287 20.3144 18.0383 19.2382 18.0383C18.0692 18.0336 17.0395 17.1794 16.7061 15.9423C16.6682 15.8022 16.6386 15.6715 16.6386 15.6482C16.6386 15.6295 17.816 15.6109 19.2593 15.6109H21.88L21.8505 15.7602ZM14.0601 18.5985C14.1614 18.6638 14.3049 18.7945 14.3766 18.8926C14.4821 19.0373 14.5075 19.1213 14.5201 19.3687L14.537 19.6721H11.9965H9.45596L9.47284 19.3687C9.4855 19.1213 9.51082 19.0373 9.62055 18.8926C9.76825 18.6872 9.9666 18.5471 10.1776 18.5004C10.262 18.4818 11.1271 18.4678 12.102 18.4724L13.8744 18.4818L14.0601 18.5985ZM15.246 20.7038C15.3515 20.7271 15.5076 20.8065 15.592 20.8719C15.7819 21.0119 15.9634 21.3947 15.9634 21.6421V21.8195H11.9923H8.0169L8.04222 21.5861C8.08864 21.1379 8.35451 20.8018 8.72588 20.7038C8.96221 20.6431 15.0012 20.6431 15.246 20.7038Z" fill="#626364" stroke="#626364" stroke-width="0.6"/>
</svg>
