<svg width="24" height="25" viewBox="0 0 24 25" fill="none" xmlns="http://www.w3.org/2000/svg">
<path d="M8 12.5918L8 8.5918C8 6.38266 9.79086 4.5918 12 4.5918V4.5918C14.2091 4.5918 16 6.38266 16 8.5918L16 12.5918" stroke="#626364" stroke-width="2" stroke-linecap="round"/>
<path d="M3.69435 13.2596C3.83942 11.5187 3.91196 10.6483 4.48605 10.12C5.06013 9.5918 5.9336 9.5918 7.68053 9.5918H16.3195C18.0664 9.5918 18.9399 9.5918 19.514 10.12C20.088 10.6483 20.1606 11.5187 20.3057 13.2596L20.8195 19.4257C20.904 20.4392 20.9462 20.946 20.6491 21.2689C20.352 21.5918 19.8435 21.5918 18.8264 21.5918H5.1736C4.15655 21.5918 3.64802 21.5918 3.35092 21.2689C3.05382 20.946 3.09605 20.4392 3.18051 19.4257L3.69435 13.2596Z" stroke="#626364" stroke-width="2"/>
</svg>
