<svg width="66" height="65" viewBox="0 0 66 65" fill="none" xmlns="http://www.w3.org/2000/svg">
<path d="M56.6698 13.8906L33.1366 1.36439C32.7875 1.17825 32.3691 1.18087 32.0226 1.37092L9.14062 13.8972C8.76534 14.1029 8.53259 14.4961 8.53259 14.9238V31.2864C8.54632 44.7367 16.5239 56.9051 28.8608 62.2938L32.037 63.6763C32.3338 63.8057 32.6718 63.8063 32.9693 63.6777L36.5481 62.1337C49.1139 56.862 57.2889 44.5761 57.2902 30.9618V14.9238C57.2902 14.4915 57.0516 14.0938 56.6698 13.8906ZM54.947 30.9618C54.9444 43.6376 47.331 55.0751 35.6308 59.9805L35.623 59.9844L32.5064 61.3285L29.7984 60.1484C18.3146 55.1326 10.8882 43.8067 10.8751 31.2864V15.6168L32.5933 3.72661L54.947 15.6253V30.9618Z" fill="#2FB946"/>
<path d="M23.4411 30.4498C22.9992 29.9387 22.2219 29.8783 21.7043 30.3147C21.1868 30.7504 21.1256 31.5187 21.5676 32.0291L28.0735 39.5525C28.5078 40.0548 29.2687 40.1233 29.7869 39.7066L44.9389 27.5334C45.4668 27.1099 45.5465 26.3436 45.1169 25.8224C44.6881 25.3018 43.9121 25.2224 43.3843 25.6466L29.1656 37.0692L23.4411 30.4498Z" fill="#2FB946"/>
</svg>
