<svg width="65" height="65" viewBox="0 0 65 65" fill="none" xmlns="http://www.w3.org/2000/svg">
<path d="M47.1204 40.4514L47.0831 40.2048C46.9643 39.3975 46.301 38.8028 45.5225 38.8059H44.4183C44.0531 38.8059 43.7572 39.1164 43.7572 39.4997C43.7572 39.883 44.0531 40.1935 44.4183 40.1935H45.5225C45.6494 40.1928 45.7579 40.2899 45.7775 40.4216L46.6518 46.2175C46.7404 46.8176 47.1359 47.3178 47.6815 47.5203C47.1156 47.8765 46.8374 48.5784 46.996 49.2509C47.1547 49.9231 47.7132 50.4078 48.3721 50.4454C49.0311 50.4829 49.6361 50.0648 49.8634 49.4147C50.0906 48.7643 49.887 48.0349 49.3612 47.6163H51.3273C50.8137 48.0252 50.6064 48.7321 50.8119 49.3733C51.0174 50.0144 51.59 50.4465 52.2345 50.4465C52.879 50.4465 53.4516 50.0144 53.6571 49.3733C53.8626 48.7321 53.6552 48.0252 53.1417 47.6163H53.6165C53.9817 47.6163 54.2776 47.3054 54.2776 46.9225C54.2776 46.5392 53.9817 46.2287 53.6165 46.2287H48.2124C48.0855 46.2295 47.977 46.1323 47.9575 46.0007L47.897 45.5976H52.8698C53.5427 45.5972 54.1418 45.1497 54.3625 44.4826L55.3896 41.3721C55.4593 41.1603 55.4272 40.9257 55.3032 40.7429C55.1793 40.5598 54.9786 40.4514 54.7646 40.4514H47.1204ZM52.2341 49.0558C52.1352 49.0558 52.0555 48.9718 52.0555 48.868C52.0555 48.7647 52.1352 48.6806 52.2341 48.6806C52.333 48.6806 52.413 48.7647 52.413 48.868C52.413 48.9718 52.333 49.0558 52.2341 49.0558ZM48.4537 49.0558C48.3548 49.0558 48.2747 48.9718 48.2747 48.868C48.2747 48.7647 48.3548 48.6806 48.4537 48.6806C48.5522 48.6806 48.6322 48.7647 48.6322 48.868C48.6322 48.9718 48.5522 49.0558 48.4537 49.0558ZM53.1133 44.028C53.0771 44.1368 52.9793 44.21 52.8698 44.21H47.6874L47.3296 41.839H53.836L53.1133 44.028Z" fill="#2FB946"/>
<path d="M22.8084 18.4324C23.7954 18.4497 24.6949 17.8696 25.0843 16.9648C25.474 16.06 25.2767 15.01 24.5848 14.3074C23.8929 13.6051 22.8441 13.3899 21.9305 13.7625C21.0169 14.1352 20.42 15.0224 20.42 16.0071C20.4098 17.3342 21.4783 18.4194 22.8084 18.4324ZM22.8084 14.8449C23.2836 14.8276 23.7213 15.0999 23.9151 15.5327C24.1093 15.9656 24.02 16.4727 23.6902 16.814C23.3605 17.1557 22.8557 17.2631 22.4152 17.0859C21.9743 16.9084 21.6855 16.4819 21.6852 16.0078C21.6742 15.3774 22.1769 14.8572 22.8084 14.8449Z" fill="#2FB946"/>
<path d="M16.9746 18.4324C17.9613 18.4497 18.8607 17.8696 19.2504 16.9648C19.6398 16.06 19.4425 15.01 18.7506 14.3074C18.059 13.6051 17.0103 13.3899 16.0967 13.7625C15.1832 14.1352 14.5862 15.0224 14.5859 16.0071C14.576 17.3342 15.6445 18.4194 16.9746 18.4324ZM16.9746 14.8449C17.4494 14.8276 17.8875 15.0999 18.0813 15.5327C18.2751 15.9656 18.1861 16.4727 17.8561 16.814C17.5264 17.1557 17.0219 17.2631 16.581 17.0859C16.1401 16.9084 15.8514 16.4819 15.851 16.0078C15.8401 15.3774 16.3428 14.8572 16.9746 14.8449Z" fill="#2FB946"/>
<path d="M11.1402 18.4324C12.1271 18.4497 13.0261 17.8696 13.4158 16.9648C13.8055 16.06 13.6082 15.01 12.9164 14.3074C12.2245 13.6051 11.1758 13.3899 10.2623 13.7625C9.34878 14.1352 8.75189 15.0224 8.75153 16.0071C8.74165 17.3342 9.81012 18.419 11.1402 18.4324ZM11.1402 14.8449C11.6149 14.8276 12.053 15.0995 12.2468 15.5327C12.4405 15.9656 12.3516 16.4727 12.0219 16.814C11.6922 17.1557 11.1875 17.2631 10.7466 17.0859C10.3061 16.9084 10.017 16.4819 10.0166 16.0078C10.006 15.3774 10.5083 14.8572 11.1402 14.8449Z" fill="#2FB946"/>
<path d="M50.5392 31.7032V13.9554C50.5357 10.536 47.8036 7.76483 44.4325 7.76123H8.05172C4.68061 7.76483 1.9485 10.536 1.94495 13.9554V44.4534C1.9485 47.8727 4.68061 50.6439 8.05172 50.6475H38.6033C41.5253 55.9979 47.7736 58.4998 53.5104 56.6156C59.2472 54.7319 62.865 48.9903 62.1407 42.9182C61.4164 36.8461 56.5536 32.1454 50.5392 31.7032ZM8.05172 9.60629H44.4325C46.7992 9.60886 48.7177 11.5543 48.7202 13.9554V22.6818H3.76398V13.9554C3.76652 11.5543 5.68504 9.60886 8.05172 9.60629ZM3.76398 44.4534V24.5269H48.7202V31.7032C44.7842 31.9956 41.2101 34.1388 39.0611 37.4958C36.9117 40.8533 36.4356 45.0372 37.774 48.8024H8.05172C5.68504 48.7999 3.76652 46.8544 3.76398 44.4534ZM49.6297 55.3919C43.6737 55.3919 38.8454 50.4946 38.8454 44.4534C38.8454 38.4121 43.6737 33.5148 49.6297 33.5148C55.5858 33.5148 60.414 38.4121 60.414 44.4534C60.4282 47.3589 59.2969 50.1497 57.2713 52.2043C55.2457 54.2588 52.4943 55.4069 49.6297 55.3919Z" fill="#2FB946"/>
</svg>
