<svg width="24" height="24" viewBox="0 0 24 24" fill="none" xmlns="http://www.w3.org/2000/svg">
<path d="M2.49691 2.53543C2.40407 2.64279 2.37452 2.71748 2.37452 2.8622C2.37452 3.19363 2.46737 3.25899 3.30295 3.52507C3.70809 3.65578 4.05836 3.78182 4.07524 3.80049C4.13432 3.86118 1.54738 9.96244 1.40389 10.1025C1.20977 10.2939 1.18023 10.4059 1.20977 10.798C1.27729 11.6196 1.47564 12.1985 1.91453 12.8567C2.54333 13.8043 3.4591 14.3318 4.55211 14.3832C5.6409 14.4345 6.47649 14.0704 7.24877 13.2068C7.83959 12.5486 8.14344 11.8577 8.24472 10.9381C8.28693 10.56 8.2827 10.4759 8.22784 10.3266C8.18986 10.2285 8.1139 10.1258 8.05482 10.0978C7.97464 10.0558 7.72565 9.5003 6.75924 7.21291C6.10512 5.65841 5.55228 4.34666 5.53118 4.30465C5.50586 4.24397 5.51008 4.22996 5.54806 4.24397C5.5776 4.2533 6.57355 4.57074 7.75519 4.94419C8.94104 5.31764 9.937 5.63507 9.97498 5.64908C10.0256 5.66308 10.0594 5.77045 10.0931 6.03187C10.2029 6.85813 10.7008 7.53968 11.3803 7.79642L11.5744 7.87111L11.566 12.684L11.5533 17.5015L10.7304 17.5248C10.0087 17.5482 9.87791 17.5622 9.67535 17.6556C9.01701 17.9496 8.57811 18.6545 8.57811 19.4248V19.7095L8.38399 19.7842C7.93243 19.9523 7.51886 20.3537 7.33318 20.8065C7.15171 21.2454 7.07997 22.1696 7.20235 22.4964C7.32474 22.8185 7.03355 22.7998 11.9964 22.7998C16.9593 22.7998 16.6681 22.8185 16.7905 22.4964C16.8622 22.3097 16.8664 21.7822 16.8031 21.3527C16.6976 20.6105 16.2503 20.027 15.6088 19.7842L15.4147 19.7095V19.4248C15.4147 18.6545 14.9758 17.9496 14.3175 17.6556C14.1149 17.5622 13.9841 17.5482 13.2625 17.5248L12.4395 17.5015L12.4269 12.684L12.4184 7.87111L12.5746 7.8151C12.9459 7.68439 13.4608 7.24092 13.6296 6.90948C13.6718 6.83012 13.8069 6.86746 16.0731 7.58169C17.394 8.00182 18.5165 8.3566 18.5672 8.37994C18.6516 8.41729 18.6009 8.55733 17.3518 11.5123C16.3769 13.823 16.0182 14.6353 15.9254 14.724C15.7312 14.9107 15.7017 15.0507 15.7523 15.5549C15.8494 16.5259 16.301 17.4968 16.9171 18.0617C17.4108 18.5098 17.6387 18.6545 18.2 18.8599C18.5334 18.9813 18.6094 18.9906 19.2339 18.9906C19.9598 18.9953 20.137 18.958 20.6688 18.7012C21.517 18.2904 22.264 17.4175 22.5805 16.4558C22.7029 16.0871 22.7999 15.5409 22.7999 15.2468C22.7999 15.004 22.686 14.7473 22.5594 14.7053C22.5045 14.6866 22.1121 13.8043 21.2512 11.769C20.5802 10.1725 20.0315 8.86076 20.0358 8.85609C20.04 8.84676 20.2721 8.91678 20.5548 9.00548C20.8334 9.09417 21.133 9.16886 21.2174 9.16886C21.5761 9.16886 21.7576 8.66003 21.5044 8.37994C21.3862 8.2539 20.9684 8.11853 14.1613 5.96651L13.9419 5.89649L13.9166 5.63041C13.8322 4.78547 13.3637 4.09459 12.6759 3.79115C12.486 3.70713 12.3551 3.68846 11.9964 3.68846C11.4984 3.68846 11.2368 3.77248 10.8907 4.0479C10.7135 4.18328 10.4434 4.50538 10.3548 4.67344C10.3252 4.73412 9.75131 4.56607 6.62841 3.57175C4.59853 2.92755 2.86828 2.40005 2.77966 2.40005C2.66149 2.40005 2.58975 2.43273 2.49691 2.53543ZM12.4438 4.73879C13.2329 5.15892 13.2287 6.40998 12.4395 6.81611C11.7094 7.19423 10.8612 6.53136 10.954 5.65841C11.0005 5.25695 11.2579 4.8695 11.5913 4.70611C11.7981 4.60808 12.2327 4.62209 12.4438 4.73879ZM5.85613 7.35762L6.96602 9.98579L4.74624 9.99979C3.52662 10.0045 2.52223 9.99979 2.50957 9.98579C2.49691 9.97178 2.99066 8.77674 3.60258 7.32961C4.2145 5.87782 4.72092 4.70144 4.73358 4.71078C4.74202 4.72012 5.24843 5.91516 5.85613 7.35762ZM20.386 11.9931L21.4875 14.6073L19.2677 14.6213C18.0481 14.6259 17.0395 14.6213 17.031 14.6119C17.0226 14.6026 17.5121 13.4075 18.124 11.9557C18.736 10.5039 19.2466 9.33224 19.2593 9.34625C19.2761 9.36492 19.7826 10.5553 20.386 11.9931ZM7.35428 11.0034C7.35428 11.0688 7.20657 11.5403 7.13061 11.7223C6.7086 12.7307 5.73797 13.4122 4.72514 13.4169C3.77561 13.4169 2.8303 12.796 2.39984 11.8811C2.2648 11.5916 2.12554 11.1622 2.12132 11.0221C2.12132 11.0034 3.29873 10.9894 4.7378 10.9894C6.17686 10.9894 7.35428 10.9941 7.35428 11.0034ZM21.8504 15.7603C21.8335 15.8443 21.766 16.059 21.6985 16.2411C21.2891 17.3288 20.3143 18.0383 19.2382 18.0383C18.0692 18.0337 17.0395 17.1794 16.7061 15.9423C16.6681 15.8023 16.6386 15.6716 16.6386 15.6482C16.6386 15.6296 17.816 15.6109 19.2593 15.6109H21.88L21.8504 15.7603ZM14.0601 18.5985C14.1613 18.6639 14.3048 18.7946 14.3766 18.8926C14.4821 19.0373 14.5074 19.1213 14.5201 19.3688L14.5369 19.6722H11.9964H9.4559L9.47278 19.3688C9.48544 19.1213 9.51076 19.0373 9.62049 18.8926C9.76819 18.6872 9.96654 18.5472 10.1775 18.5005C10.2619 18.4818 11.1271 18.4678 12.1019 18.4725L13.8744 18.4818L14.0601 18.5985ZM15.2459 20.7038C15.3514 20.7272 15.5076 20.8065 15.592 20.8719C15.7819 21.0119 15.9633 21.3947 15.9633 21.6421V21.8195H11.9922H8.01684L8.04216 21.5861C8.08858 21.138 8.35445 20.8019 8.72582 20.7038C8.96215 20.6432 15.0012 20.6432 15.2459 20.7038Z" fill="#CCD2E3" stroke="#CCD2E3" stroke-width="0.4"/>
</svg>
